<svg width="1267" height="1271" viewBox="0 0 1267 1271" fill="none" xmlns="http://www.w3.org/2000/svg">
<path d="M792.138 255.137L813.355 258.673L823.965 262.209L834.574 265.747L845.183 272.819L855.792 279.891L866.4 290.5L873.474 311.718V343.545L869.937 354.154L859.328 378.908L852.256 393.053L841.646 407.199L834.574 417.807L827.501 428.417L820.429 439.025V442.562L827.501 453.17L834.574 467.316L848.719 499.142L859.328 545.115V580.477L855.792 619.376L848.719 647.667L838.11 675.958L827.501 697.175L813.355 721.929L961.881 729.002L986.636 347.082V340.008L997.244 329.4H1014.93L1022 336.472L1025.54 343.545L1007.85 746.684L1014.93 753.756L1022 760.829L1029.07 767.902L1036.14 778.51V799.728L1032.61 810.337L1029.07 820.946L1022 831.555L1014.93 842.164L1000.78 852.773V958.862L997.244 969.471L990.172 983.617L986.636 990.689L979.562 997.761L968.954 1004.83H951.272L940.663 1001.3L841.646 955.326V962.398L862.864 1149.82L866.4 1185.19V1206.4L862.864 1220.55L855.792 1234.69L848.719 1245.3L841.646 1252.38L831.037 1259.45L816.893 1266.52L802.747 1270.06H311.198L297.054 1266.52L289.98 1262.98L279.372 1255.91L268.763 1245.3L261.69 1234.69L258.154 1220.55V1206.4L261.69 1192.26L304.126 1082.63H282.908L261.69 1079.1L244.009 1075.56L229.863 1072.02L215.718 1061.41L201.573 1050.81L198.036 1040.2L194.5 1026.05V1015.44L198.036 1001.3L205.109 983.617L229.863 930.572L261.69 866.918L286.444 828.019L311.198 792.656L282.908 771.438L268.763 782.046L251.081 792.656L240.473 796.192L226.327 799.728H190.964L162.673 792.656L152.064 778.51L148.528 757.292V732.539L152.064 711.321L159.137 690.103L173.282 658.276L194.5 615.84L212.182 587.55L233.399 559.259L272.299 506.215L307.662 463.78L339.489 435.489L406.68 378.908L427.897 361.226L477.405 332.936L516.305 311.718L579.959 286.964L636.54 269.283L668.367 262.209L739.093 251.601H760.312L792.138 255.137ZM293.515 110.148C314.732 116.042 357.872 127.828 360.704 127.829C363.533 127.829 409.034 144.332 431.431 152.583L484.476 173.801L544.593 205.627L594.102 237.455L551.666 251.6L505.693 269.281L466.794 286.962L424.358 311.717L385.459 336.471L328.878 382.443L297.051 414.27L261.688 449.632L233.397 484.996L201.57 530.968L187.425 484.996L173.279 439.024L162.671 403.661L144.989 354.153L134.38 332.935L67.1904 410.734L45.9717 431.952L38.8994 439.024L21.2178 442.56L14.1455 439.024L3.53613 431.952L0 421.342L3.53613 378.907L14.1455 325.862L31.8271 255.136L49.5088 202.091L70.7266 159.656L88.4082 134.902L116.698 113.684L141.453 103.075L176.815 99.5386H229.86L293.515 110.148Z" fill="url(#paint0_linear_399_225)"/>
<ellipse cx="650.677" cy="898.743" rx="38.8995" ry="38.8994" fill="white"/>
<path d="M696.653 378.907L724.943 400.125L753.234 428.415L781.524 470.85L799.206 509.75L806.278 552.185V591.084L802.742 633.52L785.06 683.029L753.234 718.392L724.943 746.682L693.116 764.364L661.29 778.509L618.853 789.118H548.127L512.764 778.509L473.865 757.292L449.11 736.074L424.356 711.319L406.674 686.565L388.993 654.738L378.383 629.984L371.311 605.23L374.847 584.012L396.065 576.94L417.283 569.867L434.964 559.258L452.646 541.577L463.255 523.895L470.328 502.677L473.865 484.996L477.401 467.314V446.096L502.155 463.778L516.3 474.386L537.518 484.996L562.272 492.068L576.417 495.605H622.39L636.535 492.068L647.144 484.996L657.752 477.923L668.362 467.314L671.898 453.168V417.806L668.362 378.907L664.826 364.761L696.653 378.907ZM647.148 637.059L643.612 640.596L650.684 647.668L657.757 651.205L664.83 654.741H675.439L686.047 651.205L696.657 644.132L700.193 629.987L696.657 615.841L647.148 637.059ZM544.594 545.11C523.111 545.11 505.695 562.526 505.695 584.009C505.695 605.493 523.111 622.909 544.594 622.909C566.078 622.909 583.494 605.493 583.494 584.009C583.494 562.526 566.078 545.11 544.594 545.11ZM739.091 492.066C719.561 492.066 703.728 507.898 703.728 527.428C703.728 546.959 719.561 562.791 739.091 562.792C758.622 562.792 774.455 546.959 774.455 527.428C774.454 507.898 758.622 492.066 739.091 492.066Z" fill="white"/>
<path d="M908.833 163.191L894.688 156.118L887.615 149.045L884.079 138.436L887.615 127.828L894.688 120.755L905.297 117.219H915.906L930.051 113.682L944.197 110.146L958.342 106.61L968.951 99.5371L976.023 92.4645L983.096 78.3192L986.632 67.7103L990.169 53.5651L993.705 32.3473L997.241 18.202L1004.31 4.05681L1014.92 0.520508L1029.07 4.05681L1036.14 14.6657L1039.68 32.3473L1043.21 50.0288L1046.75 64.174L1050.29 81.8555L1057.36 99.5371L1071.5 110.146L1089.19 117.219L1113.94 127.828L1128.09 131.364L1135.16 134.9L1142.23 145.509L1138.69 156.118L1131.62 163.191L1121.01 166.727L1099.79 170.263L1078.58 173.799L1060.9 184.408L1046.75 198.554L1039.68 219.771L1036.14 240.989L1032.6 262.207L1025.53 276.352L1014.92 283.425H1007.85L993.705 276.352L990.169 262.207L986.632 240.989L983.096 219.771L976.023 198.554L965.414 184.408L951.269 173.799L937.124 170.263L922.979 166.727L908.833 163.191Z" fill="#FFD966" stroke="#FFC83D"/>
<path d="M768.269 61.5218L762.965 58.8695L760.312 56.2173L758.986 52.239L760.312 48.2606L762.965 45.6084L766.943 44.2823H770.921L776.226 42.9562L781.53 41.6301L786.835 40.3039L790.813 37.6517L793.465 34.9995L796.118 29.695L797.444 25.7167L798.77 20.4122L800.096 12.4555L801.422 7.15108L804.074 1.84662L808.053 0.520508L813.357 1.84662L816.009 5.82497L817.335 12.4555L818.662 19.0861L819.988 24.3906L821.314 31.0211L823.966 37.6517L829.27 41.6301L835.901 44.2823L845.184 48.2606L850.488 49.5867L853.141 50.9129L855.793 54.8912L854.467 58.8695L851.814 61.5218L847.836 62.8479L839.879 64.174L831.923 65.5001L825.292 69.4785L819.988 74.7829L817.335 82.7396L816.009 90.6963L814.683 98.653L812.031 103.957L808.053 106.61H805.4L800.096 103.957L798.77 98.653L797.444 90.6963L796.118 82.7396L793.465 74.7829L789.487 69.4785L784.183 65.5001L778.878 64.174L773.574 62.8479L768.269 61.5218Z" fill="#FFD966" stroke="#FFC83D"/>
<path d="M1155.14 297.04L1148.42 293.68L1145.06 290.321L1143.38 285.282L1145.06 280.242L1148.42 276.883L1153.46 275.203H1158.5L1165.22 273.523L1171.94 271.844L1178.65 270.164L1183.69 266.804L1187.05 263.445L1190.41 256.726L1192.09 251.687L1193.77 244.968L1195.45 234.889L1197.13 228.17L1200.49 221.451L1205.53 219.771L1212.25 221.451L1215.61 226.49L1217.29 234.889L1218.97 243.288L1220.65 250.007L1222.33 258.406L1225.69 266.804L1232.41 271.844L1240.8 275.203L1252.56 280.242L1259.28 281.922L1262.64 283.602L1266 288.641L1264.32 293.68L1260.96 297.04L1255.92 298.72L1245.84 300.399L1235.77 302.079L1227.37 307.118L1220.65 313.837L1217.29 323.916L1215.61 333.994L1213.93 344.073L1210.57 350.792L1205.53 354.151H1202.17L1195.45 350.792L1193.77 344.073L1192.09 333.994L1190.41 323.916L1187.05 313.837L1182.01 307.118L1175.29 302.079L1168.58 300.399L1161.86 298.72L1155.14 297.04Z" fill="#FFD966" stroke="#FFC83D"/>
<defs>
<linearGradient id="paint0_linear_399_225" x1="202.555" y1="166.865" x2="670.991" y2="1204.98" gradientUnits="userSpaceOnUse">
<stop stop-color="#2F80ED"/>
<stop offset="1" stop-color="#1E3A8A"/>
</linearGradient>
</defs>
</svg>
